<?xml version="1.0" encoding="utf-8"?>
<!-- Generator: Adobe Illustrator 19.2.1, SVG Export Plug-In . SVG Version: 6.00 Build 0)  -->
<svg xmlns="http://www.w3.org/2000/svg" version="1.1" id="Layer" x="0px" y="0px" width="512" height="512"
     viewBox="0 0 64 64" enable-background="new 0 0 64 64" xml:space="preserve">
<polygon fill="#CCE4FF" points="24,46 32,38 40,46 46,40 38,32 46,24 40,18 32,26 24,18 18,24 26,32 18,40 "/>
<path fill="#007AFF" d="M52,9H12c-1.654,0-3,1.346-3,3v40c0,1.654,1.346,3,3,3h40c1.654,0,3-1.346,3-3V12C55,10.346,53.654,9,52,9z   M53,52c0,0.552-0.449,1-1,1H12c-0.551,0-1-0.448-1-1V12c0-0.551,0.449-1,1-1h40c0.551,0,1,0.449,1,1V52z"/>
<path fill="#007AFF" d="M46.707,23.293l-6-6c-0.391-0.391-1.023-0.391-1.414,0L32,24.586l-7.293-7.293  c-0.391-0.391-1.023-0.391-1.414,0l-6,6c-0.391,0.391-0.391,1.023,0,1.414L24.586,32l-7.293,7.293c-0.391,0.391-0.391,1.023,0,1.414  l6,6c0.391,0.391,1.023,0.391,1.414,0L32,39.414l7.293,7.293C39.488,46.902,39.744,47,40,47s0.512-0.098,0.707-0.293l6-6  c0.391-0.391,0.391-1.023,0-1.414L39.414,32l7.293-7.293C47.098,24.316,47.098,23.684,46.707,23.293z M37.293,31.293  c-0.391,0.391-0.391,1.023,0,1.414L44.586,40L40,44.586l-7.293-7.293C32.512,37.098,32.256,37,32,37s-0.512,0.098-0.707,0.293  L24,44.586L19.414,40l7.293-7.293c0.391-0.391,0.391-1.023,0-1.414L19.414,24L24,19.414l7.293,7.293  c0.391,0.391,1.023,0.391,1.414,0L40,19.414L44.586,24L37.293,31.293z"/>
</svg>
